<?xml version="1.0" encoding="UTF-8" standalone="no"?>
<svg
   width="500"
   zoomAndPan="magnify"
   viewBox="0 0 375 374.99999"
   height="500"
   preserveAspectRatio="xMidYMid"
   version="1.0"
   id="svg5"
   xmlns="http://www.w3.org/2000/svg"
   xmlns:svg="http://www.w3.org/2000/svg">
  <defs
     id="defs3">
    <view
       viewBox="0 0 375 374.99999"
       id="view2" />
    <filter
       style="color-interpolation-filters:sRGB;"
       id="filter2"
       x="0"
       y="0"
       width="1"
       height="1">
      <feComposite
         in2="SourceGraphic"
         operator="arithmetic"
         k1="0"
         k2="1"
         result="composite1"
         id="feComposite1" />
      <feColorMatrix
         in="composite1"
         values="1"
         type="saturate"
         result="colormatrix1"
         id="feColorMatrix1" />
      <feFlood
         flood-opacity="1.000000"
         flood-color="white"
         result="flood1"
         id="feFlood1" />
      <feBlend
         in="flood1"
         in2="colormatrix1"
         mode="screen"
         result="blend1"
         id="feBlend1" />
      <feBlend
         in2="blend1"
         mode="screen"
         result="blend2"
         id="feBlend2" />
      <feColorMatrix
         in="blend2"
         values="1"
         type="saturate"
         result="colormatrix2"
         id="feColorMatrix2" />
      <feComposite
         in="colormatrix2"
         in2="SourceGraphic"
         operator="in"
         k2="1"
         result="composite2"
         id="feComposite2" />
    </filter>
    <filter
       style="color-interpolation-filters:sRGB;"
       id="filter4"
       x="0"
       y="0"
       width="1"
       height="1">
      <feComposite
         in2="SourceGraphic"
         operator="arithmetic"
         k1="0"
         k2="1"
         result="composite1"
         id="feComposite3" />
      <feColorMatrix
         in="composite1"
         values="1"
         type="saturate"
         result="colormatrix1"
         id="feColorMatrix3" />
      <feFlood
         flood-opacity="1.000000"
         flood-color="white"
         result="flood1"
         id="feFlood3" />
      <feBlend
         in="flood1"
         in2="colormatrix1"
         mode="screen"
         result="blend1"
         id="feBlend3" />
      <feBlend
         in2="blend1"
         mode="screen"
         result="blend2"
         id="feBlend4" />
      <feColorMatrix
         in="blend2"
         values="1"
         type="saturate"
         result="colormatrix2"
         id="feColorMatrix4" />
      <feComposite
         in="colormatrix2"
         in2="SourceGraphic"
         operator="in"
         k2="1"
         result="composite2"
         id="feComposite4" />
    </filter>
    <filter
       style="color-interpolation-filters:sRGB;"
       id="filter6"
       x="0"
       y="0"
       width="1"
       height="1">
      <feComposite
         in2="SourceGraphic"
         operator="arithmetic"
         k1="0"
         k2="1"
         result="composite1"
         id="feComposite5" />
      <feColorMatrix
         in="composite1"
         values="1"
         type="saturate"
         result="colormatrix1"
         id="feColorMatrix5" />
      <feFlood
         flood-opacity="1.000000"
         flood-color="white"
         result="flood1"
         id="feFlood5" />
      <feBlend
         in="flood1"
         in2="colormatrix1"
         mode="screen"
         result="blend1"
         id="feBlend5" />
      <feBlend
         in2="blend1"
         mode="screen"
         result="blend2"
         id="feBlend6" />
      <feColorMatrix
         in="blend2"
         values="1"
         type="saturate"
         result="colormatrix2"
         id="feColorMatrix6" />
      <feComposite
         in="colormatrix2"
         in2="SourceGraphic"
         operator="in"
         k2="1"
         result="composite2"
         id="feComposite6" />
    </filter>
  </defs>
  <path
     style="fill:#567dbc;stroke-width:2.83465;filter:url(#filter2)"
     d="m 166.06985,280.66742 -0.3869,-10e-4 -1.74661,-0.0471 -2.71931,-0.0959 -3.23896,-0.46726 -3.23896,-0.46726 -2.87907,-0.71303 -2.87908,-0.71302 -2.39923,-0.83832 -2.39923,-0.83829 -2.03934,-0.87055 -2.03935,-0.87055 -2.51919,-1.33841 -2.51919,-1.3384 -2.29836,-1.51112 -2.29837,-1.51115 -2.02025,-1.59038 -2.02025,-1.59038 -2.33387,-2.15733 -2.33388,-2.15731 -2.44078,-2.91288 -2.44078,-2.91288 -1.75066,-2.66228 -1.75066,-2.66227 -1.55487,-2.9889 -1.55488,-2.98894 -0.94869,-2.39924 -0.9487,-2.39922 -0.7251,-2.27928 -0.7251,-2.27925 -0.61377,-2.75914 -0.61376,-2.7591 -0.3688,-2.83138 -0.31525,-2.84491 -0.1,-2.07613 -4.1e-4,-1.20073 -0.0105,-0.74411 -0.006,-0.44522 -0.002,-0.6445 -0.009,-0.71459 0.0159,-0.66967 0.006,-0.77649 0.0531,-0.7877 0.16063,-3.07622 0.32869,-2.34929 0.48831,-3.32614 0.36419,-1.59228 0.36418,-1.59225 0.74155,-2.51918 0.74156,-2.5192 1.03859,-2.58982 1.03859,-2.58985 1.40988,-2.81656 1.40988,-2.81653 1.38659,-2.15118 1.38659,-2.15119 1.70574,-2.27928 1.70574,-2.27928 3.6004,-3.62393 3.6004,-3.62395 1.69039,-1.32553 1.69039,-1.32554 2.51517,-1.69092 2.51517,-1.69096 2.75221,-1.44286 2.7522,-1.44289 1.95739,-0.83534 1.95738,-0.83532 2.92572,-0.9782 2.92571,-0.97818 0.4392,-0.14308 0.26125,-0.0757 -0.03,49.12624 v 48.90745 l 0.0221,2.38889 0.019,1.96859 30.28508,0.0438 30.01442,0.009 -2.18614,2.11153 -2.04948,1.95501 -2.14916,1.72048 -2.01251,1.56395 -2.23433,1.49792 -2.23429,1.49791 -3.16395,1.64191 -3.16397,1.64191 -2.63914,1.05744 -2.63914,1.05741 -2.51921,0.7442 -2.51918,0.74421 -2.15932,0.47665 -2.15933,0.47664 -2.86909,0.37452 -2.86911,0.37448 -2.18895,0.075 -1.56513,0.0655 -0.70656,0.0295 -0.25616,0.006 -0.22399,-0.006 -0.14003,-0.0123 z"
     id="path7-2" />
  <path
     style="fill:#334b77;filter:url(#filter4)"
     d="m 83.063602,173.85265 0.06032,-83.433219 h 30.470218 30.47022 v 33.196039 33.19606 l -2.15931,0.78602 -2.15931,0.78603 -1.85805,0.85247 -1.85805,0.85247 -2.46056,1.37124 -2.46056,1.37123 -2.1593,1.43987 -2.15931,1.43987 -2.03935,1.5657 -2.03934,1.5657 -3.60495,3.6149 -3.60495,3.6149 -2.07995,2.77604 -2.07996,2.77604 -1.73716,2.86215 -1.73717,2.86215 -1.49082,3.119 -1.49082,3.119 -0.97154,2.6643 -0.97154,2.66429 -0.72847,2.80563 -0.72847,2.80563 -0.51525,2.92738 -0.51526,2.92738 -0.24116,2.89283 -0.14397,2.52264 0.016,0.92748 0.002,1.05767 0.005,0.89646 c 0.0141,0.48015 0.0382,0.37794 0.0228,1.20466 l 0.019,0.40368 0.0205,0.88655 0.0524,1.55188 0.0245,1.09184 0.39472,2.87908 0.39472,2.87907 0.60793,2.75912 0.60793,2.75911 1.31395,3.95873 1.31396,3.95873 1.89865,3.83877 1.89866,3.83877 1.98363,2.99903 1.98362,2.99904 0.19421,0.29991 0.19422,0.2999 H 98.010731 83.00328 Z"
     id="path17-6" />
  <path
     style="fill:#0c2858;filter:url(#filter6)"
     d="m 219.29715,256.3277 0.48561,-0.27412 0.35014,-0.29221 0.63801,-0.67624 1.22162,-1.72097 1.25161,-1.96828 0.7238,-1.31958 0.72381,-1.31957 1.20993,-2.27927 1.20992,-2.27927 1.09226,-2.75912 1.09226,-2.75911 0.82997,-2.88757 0.82997,-2.88757 0.39543,-1.91089 0.39544,-1.91089 0.46061,-3.23896 0.4606,-3.23896 0.1504,-3.59885 0.12896,-3.52156 -0.36667,-3.71506 -0.38809,-3.63777 -0.36647,-2.12038 -0.36647,-2.12038 -0.83827,-3.31894 -0.83827,-3.31894 -0.97987,-2.67913 -0.97987,-2.67914 -1.44061,-2.87907 -1.4406,-2.87908 -0.71731,-1.31957 -0.71731,-1.31958 -1.60556,-2.39923 -1.60555,-2.39923 -2.02103,-2.51919 -2.02104,-2.51919 -2.88559,-2.84093 -2.8856,-2.84093 -1.91938,-1.50579 -1.91938,-1.50578 -2.39923,-1.67738 -2.39923,-1.67738 -2.63916,-1.46908 -2.63915,-1.46908 -3.60902,-1.53775 -3.60903,-1.53775 -2.02916,-0.64126 -2.02917,-0.64126 -3.119,-0.69587 -3.119,-0.69586 -2.99904,-0.41229 -2.99903,-0.41228 -5.81926,-0.0991 -5.1509,0.11608 -3.1853,0.40425 -3.119,0.42004 -2.61773,0.58425 -2.61774,0.58425 -0.20132,0.0854 0.007,-0.27955 0.2571,-2.76271 0.25709,-2.76272 0.45518,-2.59984 0.45518,-2.59985 0.52334,-2.03934 0.52334,-2.03935 0.72704,-2.27925 0.72705,-2.27927 0.94483,-2.27927 0.94483,-2.27927 1.54303,-2.95758 1.54302,-2.95756 2.02336,-3.04051 2.02336,-3.0405 1.33902,-1.66188 1.33902,-1.66188 1.84175,-2.02322 1.84176,-2.02322 2.53716,-2.29531 2.53717,-2.29532 2.71498,-2.02268 2.71497,-2.0227 2.21078,-1.38949 2.21077,-1.389497 2.53398,-1.30519 2.53398,-1.30519 2.9374,-1.24055 2.9374,-1.24055 2.19883,-0.70412 2.19882,-0.70413 2.27927,-0.60343 2.27927,-0.60343 2.43633,-0.48958 2.43632,-0.48957 3.20187,-0.3577 3.20186,-0.35769 1.90961,-0.07009 0.98372,-0.02129 0.72602,-0.04934 0.49305,-7.16e-4 1.05202,-0.03249 0.79535,-0.0046 0.49853,0.0083 0.44327,-0.03248 1.4073,0.09567 1.25187,0.108343 0.92699,0.06429 0.96518,0.08786 1.62436,0.17371 1.92085,0.16019 2.09786,0.35715 2.09786,0.35714 2.12923,0.49098 2.12923,0.49098 2.8504,0.82043 2.8504,0.82043 3.29771,1.33967 3.29772,1.33967 3.20847,1.66373 3.20847,1.66372 2.66964,1.76178 2.66964,1.76178 2.63916,2.06031 2.63915,2.06031 3.12311,3.07651 3.12311,3.07651 2.01861,2.51919 2.01862,2.5192 1.73338,2.63915 1.73338,2.63915 1.16472,2.15931 1.16472,2.15931 1.05019,2.27127 1.05019,2.27127 0.94676,2.64715 0.94676,2.64715 0.80978,3.15044 0.80979,3.15045 0.4885,3.32748 0.4885,3.32747 0.23639,1.76083 0.0551,0.31151 0.0297,0.38241 0.0408,0.18446 -0.0616,51.40351 -0.0616,51.4035 h -35.74689 -35.74689 z"
     id="path16-5" />
</svg>
